<svg width="940" height="18" viewBox="0 0 940 18" fill="none" xmlns="http://www.w3.org/2000/svg">
<path d="M365 9H395V10H365V9Z" fill="#ECECED"/>
<path d="M413.655 13V5.464H418.239V6.268H414.591V8.776H417.987V9.58H414.591V13H413.655ZM421.936 13V5.464H426.58V6.268H422.872V8.8H426.364V9.604H422.872V12.184H426.58V13H421.936ZM429.787 13L432.379 5.464H433.519L436.051 13H435.067L434.431 11.068H431.431L430.771 13H429.787ZM431.671 10.336H434.191L432.931 6.604L431.671 10.336ZM437.945 6.268V5.464H443.813V6.268H441.131L441.341 6.052V13H440.405V6.052L440.615 6.268H437.945ZM446.929 5.464H447.865V10.276C447.865 10.984 448.043 11.496 448.399 11.812C448.755 12.124 449.221 12.28 449.797 12.28C450.369 12.28 450.831 12.124 451.183 11.812C451.539 11.496 451.717 10.984 451.717 10.276V5.464H452.653V10.276C452.653 10.908 452.535 11.438 452.299 11.866C452.067 12.29 451.737 12.61 451.309 12.826C450.881 13.038 450.377 13.144 449.797 13.144C449.217 13.144 448.711 13.038 448.279 12.826C447.851 12.61 447.519 12.29 447.283 11.866C447.047 11.438 446.929 10.908 446.929 10.276V5.464ZM456.937 13V5.464H459.565C460.425 5.464 461.075 5.67 461.515 6.082C461.959 6.49 462.181 7.028 462.181 7.696C462.181 8.356 461.959 8.892 461.515 9.304C461.075 9.712 460.425 9.916 459.565 9.916H457.873V13H456.937ZM461.161 13L459.001 9.58H460.021L462.373 13H461.161ZM457.873 9.256H459.493C460.057 9.256 460.485 9.118 460.777 8.842C461.073 8.562 461.221 8.2 461.221 7.756C461.221 7.3 461.079 6.938 460.795 6.67C460.515 6.402 460.105 6.268 459.565 6.268H457.873V9.256ZM466.272 13V5.464H470.916V6.268H467.208V8.8H470.7V9.604H467.208V12.184H470.916V13H466.272ZM475.023 5.464H477.231C477.991 5.464 478.651 5.62 479.211 5.932C479.771 6.24 480.205 6.676 480.513 7.24C480.821 7.804 480.975 8.468 480.975 9.232C480.975 9.988 480.821 10.648 480.513 11.212C480.205 11.776 479.771 12.216 479.211 12.532C478.651 12.844 477.991 13 477.231 13H475.023V5.464ZM475.959 6.292V12.184H477.231C477.799 12.184 478.287 12.056 478.695 11.8C479.107 11.544 479.423 11.194 479.643 10.75C479.867 10.302 479.979 9.796 479.979 9.232C479.979 8.664 479.867 8.16 479.643 7.72C479.423 7.276 479.107 6.928 478.695 6.676C478.287 6.42 477.799 6.292 477.231 6.292H475.959ZM489.792 5.464H491.136L493.728 10.672H493.632L496.224 5.464H497.532V13H496.584V6.436H496.752L493.992 12.052H493.368L490.62 6.472H490.728V13H489.792V5.464ZM501.784 5.464H502.72V10.276C502.72 10.984 502.898 11.496 503.254 11.812C503.61 12.124 504.076 12.28 504.652 12.28C505.224 12.28 505.686 12.124 506.038 11.812C506.394 11.496 506.572 10.984 506.572 10.276V5.464H507.508V10.276C507.508 10.908 507.39 11.438 507.154 11.866C506.922 12.29 506.592 12.61 506.164 12.826C505.736 13.038 505.232 13.144 504.652 13.144C504.072 13.144 503.566 13.038 503.134 12.826C502.706 12.61 502.374 12.29 502.138 11.866C501.902 11.438 501.784 10.908 501.784 10.276V5.464ZM514.444 13.144C513.844 13.144 513.298 12.988 512.806 12.676C512.314 12.364 511.922 11.922 511.63 11.35C511.338 10.778 511.192 10.1 511.192 9.316C511.192 8.664 511.286 8.09 511.474 7.594C511.662 7.098 511.92 6.682 512.248 6.346C512.576 6.01 512.952 5.758 513.376 5.59C513.804 5.418 514.256 5.332 514.732 5.332C515.32 5.332 515.836 5.454 516.28 5.698C516.724 5.938 517.104 6.32 517.42 6.844L516.532 7.156C516.264 6.824 515.976 6.58 515.668 6.424C515.364 6.264 515.04 6.184 514.696 6.184C514.244 6.184 513.828 6.31 513.448 6.562C513.068 6.814 512.762 7.174 512.53 7.642C512.302 8.11 512.188 8.668 512.188 9.316C512.188 9.892 512.282 10.404 512.47 10.852C512.658 11.296 512.924 11.646 513.268 11.902C513.616 12.154 514.028 12.28 514.504 12.28C514.868 12.28 515.194 12.196 515.482 12.028C515.774 11.86 516.004 11.608 516.172 11.272C516.34 10.932 516.424 10.504 516.424 9.988H516.712C516.712 10.628 516.636 11.184 516.484 11.656C516.332 12.128 516.088 12.494 515.752 12.754C515.42 13.014 514.984 13.144 514.444 13.144ZM516.592 13L516.424 11.224V9.964L514.528 9.904V9.268H517.336V13H516.592ZM523.927 13.144C523.423 13.144 522.961 13.054 522.541 12.874C522.121 12.69 521.783 12.42 521.527 12.064C521.271 11.708 521.139 11.268 521.131 10.744H522.043C522.043 11.096 522.129 11.386 522.301 11.614C522.473 11.838 522.701 12.006 522.985 12.118C523.269 12.226 523.579 12.28 523.915 12.28C524.279 12.28 524.595 12.222 524.863 12.106C525.131 11.99 525.337 11.838 525.481 11.65C525.629 11.458 525.703 11.248 525.703 11.02C525.703 10.7 525.605 10.442 525.409 10.246C525.213 10.046 524.923 9.884 524.539 9.76L523.207 9.292C522.583 9.068 522.111 8.812 521.791 8.524C521.471 8.236 521.311 7.832 521.311 7.312C521.311 6.728 521.535 6.252 521.983 5.884C522.435 5.516 523.075 5.332 523.903 5.332C524.671 5.332 525.271 5.51 525.703 5.866C526.135 6.218 526.383 6.692 526.447 7.288H525.523C525.463 6.94 525.299 6.67 525.031 6.478C524.767 6.282 524.391 6.184 523.903 6.184C523.407 6.184 523.021 6.294 522.745 6.514C522.469 6.734 522.331 7.012 522.331 7.348C522.331 7.624 522.417 7.844 522.589 8.008C522.765 8.168 523.039 8.312 523.411 8.44L524.971 8.98C525.511 9.16 525.937 9.412 526.249 9.736C526.565 10.06 526.723 10.48 526.723 10.996C526.723 11.396 526.615 11.758 526.399 12.082C526.187 12.406 525.873 12.664 525.457 12.856C525.041 13.048 524.531 13.144 523.927 13.144Z" fill="#1D1F2E"/>
<path d="M545 9H575V10H545V9Z" fill="#ECECED"/>
</svg>
